<svg width="17" height="17" viewBox="0 0 17 17" fill="none" xmlns="http://www.w3.org/2000/svg">
<g id="CaretDown">
<path id="Vector" d="M14.1535 6.85375L9.15346 11.8538C9.10702 11.9002 9.05188 11.9371 8.99118 11.9623C8.93048 11.9874 8.86542 12.0004 8.79971 12.0004C8.734 12.0004 8.66894 11.9874 8.60824 11.9623C8.54754 11.9371 8.4924 11.9002 8.44596 11.8538L3.44596 6.85375C3.37595 6.78382 3.32827 6.6947 3.30895 6.59765C3.28962 6.50061 3.29952 6.40002 3.3374 6.3086C3.37528 6.21719 3.43942 6.13908 3.52172 6.08414C3.60402 6.0292 3.70076 5.99992 3.79971 6H13.7997C13.8987 5.99992 13.9954 6.0292 14.0777 6.08414C14.16 6.13908 14.2241 6.21719 14.262 6.3086C14.2999 6.40002 14.3098 6.50061 14.2905 6.59765C14.2712 6.6947 14.2235 6.78382 14.1535 6.85375Z" fill="white"/>
</g>
</svg>
