<svg width="160" height="160" viewBox="0 0 160 160" fill="none" xmlns="http://www.w3.org/2000/svg">
<g id="6201810_3173470 1">
<g id="Background_Complete">
<g id="Group">
<path id="Vector" d="M160 122.367H0V122.447H160V122.367Z" fill="#EBEBEB"/>
<path id="Vector_2" d="M27.3861 125.415H16.7871V125.495H27.3861V125.415Z" fill="#EBEBEB"/>
<path id="Vector_3" d="M68.3733 124.547H54.7646V124.627H68.3733V124.547Z" fill="#EBEBEB"/>
<path id="Vector_4" d="M36.0531 126.538H29.9116V126.618H36.0531V126.538Z" fill="#EBEBEB"/>
<path id="Vector_5" d="M143.968 127.849H139.093V127.929H143.968V127.849Z" fill="#EBEBEB"/>
<path id="Vector_6" d="M136.244 127.849H125.271V127.929H136.244V127.849Z" fill="#EBEBEB"/>
<path id="Vector_7" d="M106.187 125.547H98.5601V125.627H106.187V125.547Z" fill="#EBEBEB"/>
<path id="Vector_8" d="M75.8443 108.096H14.0526C13.0456 108.096 12.2261 107.276 12.2261 106.269V19.4112C12.2261 18.4042 13.0456 17.5846 14.0526 17.5846H75.8443C76.851 17.5846 77.6705 18.4042 77.6705 19.4112V106.269C77.6705 107.276 76.851 108.096 75.8443 108.096ZM14.0526 17.665C13.0894 17.665 12.3061 18.4483 12.3061 19.4115V106.27C12.3061 107.233 13.0894 108.016 14.0526 108.016H75.8443C76.8072 108.016 77.5906 107.233 77.5906 106.27V19.4112C77.5906 18.4483 76.8072 17.6646 75.8443 17.6646L14.0526 17.665Z" fill="#EBEBEB"/>
<path id="Vector_9" d="M145.059 108.096H83.2676C82.2606 108.096 81.4414 107.276 81.4414 106.269V19.4112C81.4414 18.4042 82.2609 17.5846 83.2676 17.5846H145.059C146.066 17.5846 146.886 18.4042 146.886 19.4112V106.269C146.886 107.276 146.066 108.096 145.059 108.096ZM83.2676 17.665C82.3048 17.665 81.5214 18.4483 81.5214 19.4115V106.27C81.5214 107.233 82.3048 108.016 83.2676 108.016H145.059C146.022 108.016 146.806 107.233 146.806 106.27V19.4112C146.806 18.4483 146.022 17.6646 145.059 17.6646L83.2676 17.665Z" fill="#EBEBEB"/>
</g>
<g id="Group_2">
<g id="Group_3">
<path id="Vector_10" d="M98.3997 62.8403L132.917 62.8403V28.2291L98.3997 28.2291V62.8403Z" fill="#F0F0F0"/>
<path id="Vector_11" d="M98.3999 28.2295H97.8037V62.8407H98.3999V28.2295Z" fill="#E0E0E0"/>
<path id="Vector_12" d="M101.447 60.6544H129.87V30.4153L101.447 30.4153V60.6544Z" fill="#FAFAFA"/>
<path id="Vector_13" d="M112.649 54.0809H121.651C123.601 54.0809 124.907 52.4995 124.567 50.5488L122.816 40.5209C122.476 38.5702 120.618 36.9888 118.667 36.9888H109.666C107.715 36.9888 106.41 38.5702 106.75 40.5209L108.501 50.5488C108.841 52.4995 110.699 54.0809 112.649 54.0809Z" fill="#F0F0F0"/>
</g>
<g id="Group_4">
<g id="Group_5">
<g id="Group_6">
<path id="Vector_14" d="M33.5882 73.351H25.9092V120.728H33.5882V73.351Z" fill="#F0F0F0"/>
<path id="Vector_15" d="M67.2887 120.728H26.6948V122.363H67.2887V120.728Z" fill="#F0F0F0"/>
<path id="Vector_16" d="M33.5882 120.728H67.9639V73.3514H33.5882L33.5882 120.728Z" fill="#F5F5F5"/>
<path id="Vector_17" d="M34.9707 106.481H66.5815V98.0209H34.9707V106.481Z" fill="#F0F0F0"/>
<path id="Vector_18" d="M34.9707 117.553H66.5815V109.093H34.9707V117.553Z" fill="#F0F0F0"/>
<path id="Vector_19" d="M62.8402 98.6621H38.7119C38.5046 98.6621 38.335 98.4925 38.335 98.2851V97.879C38.335 97.6717 38.5046 97.5021 38.7119 97.5021H62.8402C63.0476 97.5021 63.2172 97.6717 63.2172 97.879V98.2851C63.2175 98.4925 63.0476 98.6621 62.8402 98.6621Z" fill="#F5F5F5"/>
<path id="Vector_20" d="M62.8402 109.735H38.7119C38.5046 109.735 38.335 109.565 38.335 109.358V108.952C38.335 108.744 38.5046 108.575 38.7119 108.575H62.8402C63.0476 108.575 63.2172 108.744 63.2172 108.952V109.358C63.2175 109.565 63.0476 109.735 62.8402 109.735Z" fill="#F5F5F5"/>
<path id="Vector_21" d="M34.9707 84.4235H66.5815V75.9636H34.9707V84.4235Z" fill="#F0F0F0"/>
<path id="Vector_22" d="M34.9707 95.4083H66.5815V86.9485H34.9707V95.4083Z" fill="#F0F0F0"/>
<path id="Vector_23" d="M62.8402 76.6051H38.7119C38.5046 76.6051 38.335 76.4355 38.335 76.2282V75.8221C38.335 75.6147 38.5046 75.4451 38.7119 75.4451H62.8402C63.0476 75.4451 63.2172 75.6147 63.2172 75.8221V76.2282C63.2175 76.4352 63.0476 76.6051 62.8402 76.6051Z" fill="#F5F5F5"/>
<path id="Vector_24" d="M62.8402 87.5897H38.7119C38.5046 87.5897 38.335 87.4202 38.335 87.2128V86.8067C38.335 86.5994 38.5046 86.4297 38.7119 86.4297H62.8402C63.0476 86.4297 63.2172 86.5994 63.2172 86.8067V87.2128C63.2175 87.4202 63.0476 87.5897 62.8402 87.5897Z" fill="#F5F5F5"/>
</g>
</g>
</g>
<g id="Group_7">
<g id="Group_8">
<path id="Vector_25" d="M66.7221 25.6189H23.6143V63.4624H66.7221V25.6189Z" fill="#E6E6E6"/>
<path id="Vector_26" d="M71.3414 24.1469H20.8233C20.5869 24.1469 20.3955 24.3386 20.3955 24.5747C20.3955 24.8112 20.5872 25.0026 20.8233 25.0026H71.3411C71.5776 25.0026 71.7689 24.8109 71.7689 24.5747C71.7693 24.3382 71.5776 24.1469 71.3414 24.1469Z" fill="#E6E6E6"/>
<path id="Vector_27" d="M68.551 25.6189H24.4688V63.4624H68.551V25.6189Z" fill="#F0F0F0"/>
<path id="Vector_28" d="M66.7218 63.4624H23.6143V64.6749H67.9819L66.7218 63.4624Z" fill="#E6E6E6"/>
<path id="Vector_29" d="M71.5979 63.4624H27.5156L28.7758 64.6749H72.858L71.5979 63.4624Z" fill="#F0F0F0"/>
<path id="Vector_30" d="M65.9897 60.9017V28.1798L27.0291 28.1798L27.0291 60.9017L65.9897 60.9017Z" fill="#FAFAFA"/>
<path id="Vector_31" d="M35.874 60.9018L50.9041 28.1798H57.9991L42.9691 60.9018H35.874Z" fill="white"/>
<path id="Vector_32" d="M44.4932 60.9018L59.5232 28.1798H62.2893L47.2592 60.9018H44.4932Z" fill="white"/>
<path id="Vector_33" d="M65.9897 60.9018V28.1798H65.6646V60.9018H65.9897Z" fill="#E6E6E6"/>
</g>
<g id="Group_9" opacity="0.4">
<path id="Vector_34" d="M27.0592 23.3811H22.6519V54.6106H27.0592V23.3811Z" fill="#F0F0F0"/>
<path id="Vector_35" d="M28.7759 23.3811H25.3423V54.6106H28.7759V23.3811Z" fill="#E6E6E6"/>
<path id="Vector_36" d="M31.4664 23.3811H27.0591V54.6106H31.4664V23.3811Z" fill="#F0F0F0"/>
<path id="Vector_37" d="M33.1836 23.3811H29.75V54.6106H33.1836V23.3811Z" fill="#E6E6E6"/>
<path id="Vector_38" d="M35.8742 23.3811H31.4668V54.6106H35.8742V23.3811Z" fill="#F0F0F0"/>
</g>
<g id="Group_10" opacity="0.4">
<path id="Vector_39" d="M64.3499 23.3811H61.8101V54.6106H64.3499V23.3811Z" fill="#F0F0F0"/>
<path id="Vector_40" d="M65.3389 23.3811H63.3604V54.6106H65.3389V23.3811Z" fill="#E6E6E6"/>
<path id="Vector_41" d="M66.8899 23.3811H64.3501V54.6106H66.8899V23.3811Z" fill="#F0F0F0"/>
<path id="Vector_42" d="M67.879 23.3811H65.9004V54.6106H67.879V23.3811Z" fill="#E6E6E6"/>
<path id="Vector_43" d="M69.4295 23.3811H66.8896V54.6106H69.4295V23.3811Z" fill="#F0F0F0"/>
</g>
</g>
<g id="Group_11">
<g id="Group_12">
<g id="Group_13">
<path id="Vector_44" d="M114.192 86.1485C114.086 87.4426 115.048 88.5779 116.343 88.6842C117.637 88.7907 118.772 87.8278 118.878 86.5338C118.985 85.2397 118.022 84.1043 116.728 83.9981C115.434 83.8915 114.299 84.8544 114.192 86.1485Z" fill="#E0E0E0"/>
<path id="Vector_45" d="M118.032 87.3782C117.925 88.6723 118.888 89.8077 120.182 89.9139C121.476 90.0205 122.612 89.0576 122.718 87.7635C122.825 86.4694 121.862 85.3341 120.568 85.2278C119.274 85.1213 118.139 86.0842 118.032 87.3782Z" fill="#E0E0E0"/>
<path id="Vector_46" d="M122.149 87.855C122.042 89.1491 123.005 90.2845 124.299 90.3907C125.593 90.4973 126.729 89.5344 126.835 88.2403C126.941 86.9462 125.978 85.8109 124.684 85.7046C123.391 85.5984 122.255 86.561 122.149 87.855Z" fill="#E0E0E0"/>
<path id="Vector_47" d="M109.824 87.3782C109.718 88.6723 110.681 89.8077 111.975 89.9139C113.269 90.0205 114.404 89.0576 114.511 87.7635C114.617 86.4694 113.654 85.3341 112.36 85.2278C111.066 85.1213 109.931 86.0842 109.824 87.3782Z" fill="#E0E0E0"/>
<path id="Vector_48" d="M125.54 87.3782C125.433 88.6723 126.396 89.8077 127.69 89.9139C128.984 90.0205 130.12 89.0576 130.226 87.7635C130.332 86.4694 129.37 85.3341 128.075 85.2278C126.781 85.1213 125.646 86.0842 125.54 87.3782Z" fill="#E0E0E0"/>
<path id="Vector_49" d="M106.667 85.9738C106.56 87.2678 107.523 88.4032 108.817 88.5094C110.111 88.6157 111.247 87.6531 111.353 86.359C111.459 85.065 110.496 83.9296 109.202 83.8234C107.909 83.7171 106.773 84.6797 106.667 85.9738Z" fill="#E0E0E0"/>
<path id="Vector_50" d="M103.335 86.8445C103.228 88.1386 104.191 89.2739 105.485 89.3802C106.779 89.4867 107.915 88.5238 108.021 87.2298C108.127 85.9357 107.164 84.8003 105.87 84.6941C104.576 84.5878 103.441 85.5504 103.335 86.8445Z" fill="#E0E0E0"/>
</g>
<g id="Group_14">
<g id="Group_15">
<g id="Group_16">
<path id="Vector_51" d="M100.648 87.4774C100.648 87.4774 101.051 97.1024 116.515 97.1024C131.978 97.1024 132.382 87.4774 132.382 87.4774H100.648Z" fill="#F0F0F0"/>
</g>
</g>
</g>
</g>
<g id="Group_17">
<path id="Vector_52" d="M141.201 97.1021H138.262V122.367H141.201V97.1021Z" fill="#E6E6E6"/>
<path id="Vector_53" d="M141.988 97.1021H140.256V122.367H141.988V97.1021Z" fill="#F0F0F0"/>
<path id="Vector_54" d="M128.691 97.1021H125.752V122.367H128.691V97.1021Z" fill="#E6E6E6"/>
<path id="Vector_55" d="M129.242 97.1021H127.511V122.367H129.242V97.1021Z" fill="#F0F0F0"/>
<path id="Vector_56" d="M100.778 100.166H142.524V97.1022H100.778V100.166Z" fill="#F0F0F0"/>
<path id="Vector_57" d="M88.0176 97.1021H85.0781V122.367H88.0176V97.1021Z" fill="#E6E6E6"/>
<path id="Vector_58" d="M88.5689 97.1021H86.8374V122.367H88.5689V97.1021Z" fill="#F0F0F0"/>
<path id="Vector_59" d="M84.5527 100.166H99.52V97.1022H84.5527V100.166Z" fill="#E6E6E6"/>
<path id="Vector_60" d="M100.527 97.1021H97.5879V122.367H100.527V97.1021Z" fill="#E6E6E6"/>
<path id="Vector_61" d="M101.315 97.1021H99.583V122.367H101.315V97.1021Z" fill="#F0F0F0"/>
</g>
</g>
</g>
</g>
<g id="Shadow_1_">
<path id="_x3C_Path_x3E__219_" d="M80 136.82C114.266 136.82 142.045 135.197 142.045 133.196C142.045 131.195 114.266 129.573 80 129.573C45.7338 129.573 17.9556 131.195 17.9556 133.196C17.9556 135.197 45.7338 136.82 80 136.82Z" fill="#F5F5F5"/>
</g>
<g id="Trash">
<g id="Group_18">
<path id="Vector_62" d="M113.753 130.019C113.753 131.34 112.801 132.468 111.498 132.685C109.004 133.099 104.683 133.668 99.7705 133.668C94.8578 133.668 90.5372 133.099 88.0431 132.685C86.7398 132.468 85.7881 131.34 85.7881 130.019V104.109H113.753V130.019Z" fill="#407BFF"/>
<path id="Vector_63" opacity="0.3" d="M85.7876 104.568V108.204C87.4705 108.828 92.9962 109.286 99.769 109.286C106.55 109.286 112.079 108.828 113.754 108.204V104.568H85.7876Z" fill="black"/>
<path id="Vector_64" d="M114.28 107.342C114.28 108.163 107.93 108.828 99.7705 108.828C91.6102 108.828 85.2614 108.163 85.2614 107.342L84.9951 104.109H114.546L114.28 107.342Z" fill="#407BFF"/>
<g id="Group_19">
<path id="Vector_65" d="M99.7705 105.596C107.931 105.596 114.546 104.93 114.546 104.109C114.546 103.289 107.931 102.623 99.7705 102.623C91.6103 102.623 84.9951 103.289 84.9951 104.109C84.9951 104.93 91.6103 105.596 99.7705 105.596Z" fill="#407BFF"/>
<path id="Vector_66" opacity="0.3" d="M99.7705 105.596C107.931 105.596 114.546 104.93 114.546 104.109C114.546 103.289 107.931 102.623 99.7705 102.623C91.6103 102.623 84.9951 103.289 84.9951 104.109C84.9951 104.93 91.6103 105.596 99.7705 105.596Z" fill="black"/>
</g>
<path id="Vector_67" opacity="0.2" d="M89.5353 128.195C88.9385 128.195 88.4502 127.706 88.4502 127.109V112.251C88.4502 111.654 88.9385 111.165 89.5353 111.165C90.1321 111.165 90.6204 111.654 90.6204 112.251V127.109C90.6207 127.706 90.1324 128.195 89.5353 128.195Z" fill="black"/>
<path id="Vector_68" opacity="0.2" d="M110.006 128.195C109.409 128.195 108.92 127.706 108.92 127.109V112.251C108.92 111.654 109.409 111.165 110.006 111.165C110.602 111.165 111.091 111.654 111.091 112.251V127.109C111.091 127.706 110.602 128.195 110.006 128.195Z" fill="black"/>
<path id="Vector_69" opacity="0.2" d="M103.182 128.195C102.585 128.195 102.097 127.706 102.097 127.109V112.251C102.097 111.654 102.585 111.165 103.182 111.165C103.779 111.165 104.267 111.654 104.267 112.251V127.109C104.267 127.706 103.779 128.195 103.182 128.195Z" fill="black"/>
<path id="Vector_70" opacity="0.2" d="M96.359 128.195C95.7622 128.195 95.2739 127.706 95.2739 127.109V112.251C95.2739 111.654 95.7622 111.165 96.359 111.165C96.9558 111.165 97.4442 111.654 97.4442 112.251V127.109C97.4442 127.706 96.9558 128.195 96.359 128.195Z" fill="black"/>
</g>
</g>
<g id="Character_1_">
<g id="Group_20">
<path id="Vector_71" d="M61.7205 44.5299C61.7205 45.3488 61.0568 46.0125 60.2379 46.0125C59.4191 46.0125 58.7554 45.3488 58.7554 44.5299C58.7554 43.711 59.4191 43.0474 60.2379 43.0474C61.0568 43.0474 61.7205 43.7114 61.7205 44.5299Z" fill="#263238"/>
<path id="Vector_72" d="M59.0437 44.7466C59.0153 44.7466 58.9881 44.7315 58.9733 44.705C58.5612 43.9485 58.8415 42.9978 59.598 42.5853C59.9644 42.3856 60.3868 42.3405 60.7871 42.4586C61.1874 42.5766 61.518 42.8432 61.7173 43.2099C61.7384 43.2486 61.7241 43.2973 61.6853 43.3184C61.6463 43.3392 61.598 43.3248 61.5769 43.2864C61.3977 42.9574 61.101 42.7178 60.7417 42.6122C60.3823 42.5059 60.0034 42.5466 59.6744 42.7258C58.9954 43.0957 58.7439 43.9491 59.1138 44.6282C59.1349 44.6669 59.1205 44.7155 59.0818 44.7366C59.0697 44.7434 59.0565 44.7466 59.0437 44.7466Z" fill="#263238"/>
<path id="Vector_73" d="M57.6053 51.3152C57.2719 51.3152 56.9487 51.2086 56.6763 51.0061C56.3416 50.7571 56.1237 50.3923 56.0632 49.9795C56.0027 49.5667 56.1064 49.1549 56.3557 48.8198C56.605 48.4851 56.9695 48.2672 57.3823 48.2064C57.4274 48.2013 57.4667 48.2304 57.4731 48.2739C57.4795 48.3174 57.4495 48.3584 57.4056 48.3648C57.0351 48.4192 56.7077 48.6147 56.484 48.9152C56.2603 49.2157 56.1672 49.5853 56.2216 49.9562C56.276 50.3267 56.4715 50.6541 56.772 50.8778C57.0725 51.1014 57.4418 51.1939 57.8127 51.1398C57.8568 51.1338 57.8971 51.1638 57.9035 51.2074C57.9099 51.2509 57.8799 51.2915 57.836 51.2982C57.7586 51.3098 57.6818 51.3152 57.6053 51.3152Z" fill="#263238"/>
<path id="Vector_74" d="M65.6681 53.7341C65.3695 53.7341 65.077 53.648 64.8207 53.4819C64.7836 53.4579 64.773 53.4083 64.797 53.3712C64.821 53.3341 64.8706 53.3239 64.9078 53.3475C65.222 53.5517 65.597 53.6208 65.9631 53.5427C66.3295 53.4647 66.6438 53.2487 66.8476 52.9344C67.2684 52.2858 67.0831 51.4154 66.4345 50.9946C66.3974 50.9706 66.3868 50.921 66.4108 50.8839C66.4348 50.8467 66.4844 50.8365 66.5215 50.8602C67.2441 51.3293 67.4508 52.2986 66.9817 53.0215C66.7545 53.3715 66.4047 53.6122 65.9964 53.6992C65.8873 53.7223 65.7772 53.7341 65.6681 53.7341Z" fill="#263238"/>
<path id="Vector_75" d="M59.405 49.1616C60.5642 49.1616 61.5039 48.2219 61.5039 47.0627C61.5039 45.9036 60.5642 44.9639 59.405 44.9639C58.2459 44.9639 57.3062 45.9036 57.3062 47.0627C57.3062 48.2219 58.2459 49.1616 59.405 49.1616Z" fill="#263238"/>
<path id="Vector_76" d="M61.3732 51.8559C62.4605 50.7686 62.4605 49.0057 61.3732 47.9184C60.2858 46.831 58.5229 46.831 57.4356 47.9184C56.3483 49.0057 56.3483 50.7686 57.4356 51.8559C58.5229 52.9433 60.2858 52.9433 61.3732 51.8559Z" fill="#263238"/>
<path id="Vector_77" d="M59.7001 56.5066C61.4006 56.5066 62.7792 55.128 62.7792 53.4275C62.7792 51.727 61.4006 50.3485 59.7001 50.3485C57.9996 50.3485 56.6211 51.727 56.6211 53.4275C56.6211 55.128 57.9996 56.5066 59.7001 56.5066Z" fill="#263238"/>
<path id="Vector_78" d="M65.7763 54.3538C66.1671 52.6989 65.1423 51.0405 63.4873 50.6498C61.8324 50.259 60.174 51.2838 59.7832 52.9387C59.3925 54.5937 60.4173 56.252 62.0722 56.6428C63.7271 57.0336 65.3855 56.0088 65.7763 54.3538Z" fill="#263238"/>
<path id="Vector_79" d="M72.9887 59.9885C72.9897 60.2358 73.0012 60.552 73.0095 60.8416C73.0191 61.1373 73.0345 61.4355 73.053 61.7341C73.0953 62.3309 73.1362 62.9309 73.1983 63.5296C73.3135 64.728 73.477 65.9254 73.6838 67.1155C73.7372 67.4128 73.7842 67.7117 73.8454 68.0074L73.9858 68.7322C74.0217 68.8496 73.998 68.825 73.9426 68.8208C73.8886 68.8227 73.9554 68.88 74.1305 68.8797C74.4809 68.8819 75.0242 68.7059 75.5311 68.4829C75.789 68.3693 76.0502 68.2419 76.3129 68.1091C76.5708 67.9763 76.8396 67.8205 77.0802 67.6867L78.0162 68.7635C77.7817 69.0346 77.5542 69.2592 77.3055 69.4915C77.0607 69.7226 76.8012 69.9414 76.5228 70.1475C76.2457 70.3571 75.9471 70.5478 75.6175 70.7258C75.287 70.9034 74.9218 71.0573 74.4726 71.1552C74.2473 71.201 73.9996 71.2346 73.7199 71.2182C73.4418 71.201 73.1311 71.1398 72.8306 70.9958C72.5305 70.856 72.2556 70.6406 72.054 70.4051C71.8486 70.1699 71.7071 69.921 71.6047 69.6861C71.5039 69.4618 71.4265 69.193 71.3951 69.0682L71.2684 68.601C71.1817 68.2899 71.1049 67.9763 71.03 67.6624C70.734 66.4054 70.4962 65.1341 70.3372 63.8493C70.2582 63.207 70.1938 62.5616 70.1558 61.912C70.1362 61.5872 70.1206 61.2614 70.1103 60.9328C70.0978 60.5981 70.0998 60.2893 70.1094 59.9123L72.9887 59.9885Z" fill="#FFB573"/>
<g id="Group_21">
<path id="Vector_80" d="M71.436 56.5383C74.1659 58.6282 74.0562 62.5661 74.0562 62.5661L69.1736 63.7331C69.1736 63.7331 67.6754 59.7738 68.2834 58.3238C68.9176 56.8115 69.8997 55.3623 71.436 56.5383Z" fill="#407BFF"/>
<path id="Vector_81" opacity="0.7" d="M71.436 56.5383C74.1659 58.6282 74.0562 62.5661 74.0562 62.5661L69.1736 63.7331C69.1736 63.7331 67.6754 59.7738 68.2834 58.3238C68.9176 56.8115 69.8997 55.3623 71.436 56.5383Z" fill="white"/>
</g>
<path id="Vector_82" d="M76.8848 68.0499L77.6927 66.6938L79.7155 68.8563C79.7155 68.8563 78.2646 69.7843 76.7612 69.1223L76.8848 68.0499Z" fill="#FFB573"/>
<path id="Vector_83" d="M78.6879 66.0445L81.2837 67.5731L79.7151 68.8563L77.6924 66.6935L78.6879 66.0445Z" fill="#FFB573"/>
<path id="Vector_84" d="M56.1558 130.835L58.9478 131.103L60.6796 124.567L57.8876 124.299L56.1558 130.835Z" fill="#FFB573"/>
<path id="Vector_85" d="M41.8521 125.34L44.3577 126.653L47.3372 120.746L44.8316 119.433L41.8521 125.34Z" fill="#FFB573"/>
<path id="Vector_86" d="M45.0263 125.503L42.7854 123.228C42.7038 123.145 42.5802 123.134 42.4878 123.203L40.4324 124.716C40.2193 124.874 40.2007 125.208 40.3921 125.396C41.187 126.176 41.6103 126.512 42.5956 127.513C43.202 128.128 44.4526 129.579 45.29 130.429C46.1089 131.26 47.0126 130.497 46.7399 130.068C45.5182 128.144 45.313 126.941 45.2356 125.964C45.2212 125.788 45.1457 125.624 45.0263 125.503Z" fill="#263238"/>
<path id="Vector_87" d="M59.3832 130.255H56.011C55.8882 130.255 55.7774 130.34 55.7448 130.46L55.0117 133.128C54.9355 133.405 55.1394 133.659 55.4232 133.662C56.6117 133.673 57.1749 133.667 58.6581 133.667C59.5704 133.667 61.9307 133.667 63.1906 133.667C64.4229 133.667 64.6805 132.421 64.1707 132.308C61.8846 131.803 60.5669 131.105 59.8613 130.439C59.7336 130.319 59.5627 130.255 59.3832 130.255Z" fill="#263238"/>
<path id="Vector_88" opacity="0.2" d="M60.6788 124.569L59.7867 127.938H56.9224L57.8856 124.301L60.6788 124.569Z" fill="black"/>
<path id="Vector_89" opacity="0.2" d="M44.8301 119.434L47.337 120.748L45.8 123.792L43.2935 122.478L44.8301 119.434Z" fill="black"/>
<g id="Group_22">
<path id="Vector_90" d="M70.6122 56.1334C70.6122 56.1334 71.8464 56.6765 67.7066 73.0602C63.1424 72.6653 58.4253 72.2576 56.2045 72.0653C56.8022 67.4006 57.0576 64.5146 55.6509 54.7139C55.6509 54.7139 58.1062 54.3981 60.5907 54.4928C62.5344 54.567 64.1254 54.6422 65.8138 54.9446C68.039 55.3437 70.6122 56.1334 70.6122 56.1334Z" fill="#407BFF"/>
<path id="Vector_91" opacity="0.7" d="M70.6122 56.1334C70.6122 56.1334 71.8464 56.6765 67.7066 73.0602C63.1424 72.6653 58.4253 72.2576 56.2045 72.0653C56.8022 67.4006 57.0576 64.5146 55.6509 54.7139C55.6509 54.7139 58.1062 54.3981 60.5907 54.4928C62.5344 54.567 64.1254 54.6422 65.8138 54.9446C68.039 55.3437 70.6122 56.1334 70.6122 56.1334Z" fill="white"/>
</g>
<path id="Vector_92" d="M60.5906 54.4128C60.5906 54.4128 59.9381 54.4243 59.1672 54.4243C58.7045 55.1392 60.6623 57.2224 63.1522 59.2691C63.7522 57.4039 64.6991 57.4122 64.6991 57.4122L60.5906 54.4128Z" fill="white"/>
<path id="Vector_93" d="M65.8119 54.9037C65.8119 54.9037 66.1027 54.945 66.7991 55.1037C67.2618 55.8186 67.5213 57.6026 66.1559 59.1587C65.6231 57.2384 64.6992 57.4122 64.6992 57.4122L65.8119 54.9037Z" fill="white"/>
<path id="Vector_94" d="M61.6166 48.657C61.8006 50.3661 61.8633 53.4736 60.5903 54.4931C60.5903 54.4931 61.9497 55.8806 64.6988 57.4122C66.6988 56.0304 65.8131 54.945 65.8131 54.945C63.9779 54.3354 64.1465 52.9491 64.5859 51.6717L61.6166 48.657Z" fill="#FFB573"/>
<path id="Vector_95" opacity="0.2" d="M62.8275 49.8871L64.5849 51.6701C64.48 51.9725 64.392 52.2803 64.3436 52.5834C63.6368 52.4179 62.6134 51.6832 62.6022 50.9271C62.5968 50.5501 62.7513 50.056 62.8275 49.8871Z" fill="black"/>
<path id="Vector_96" d="M68.2143 43.08C69.39 44.1245 69.7369 46.6666 68.6169 48.391C68.0626 45.6426 68.2143 43.08 68.2143 43.08Z" fill="#263238"/>
<path id="Vector_97" d="M61.2569 45.0695C61.0533 47.8832 60.9068 49.0701 62.1241 50.6919C63.9548 53.1315 67.4556 52.7661 68.4956 50.0698C69.4319 47.6429 69.6076 43.449 67.0252 41.9712C64.4809 40.5152 61.4607 42.2554 61.2569 45.0695Z" fill="#FFB573"/>
<path id="Vector_98" d="M60.8836 47.3334C62.9636 47.2534 64.1162 44.5334 63.5933 43.3869C65.9504 44.6134 69.5242 45.5824 69.1264 44.0003C68.5901 41.8669 66.0087 40.3024 62.8301 41.4458C60.9904 42.24 59.417 44 60.8836 47.3334Z" fill="#263238"/>
<path id="Vector_99" d="M60.2509 47.3299C60.3379 47.9082 60.6838 48.3926 61.0749 48.672C61.6634 49.0922 62.2029 48.6253 62.2448 47.9414C62.2826 47.3261 62.0218 46.3658 61.3325 46.217C60.6531 46.0698 60.1514 46.6685 60.2509 47.3299Z" fill="#FFB573"/>
<path id="Vector_100" d="M67.7058 73.0605C67.7058 73.0605 70.3074 90.0362 68.8565 100.942C67.7605 109.182 60.677 126.962 60.677 126.962L56.0786 126.836C56.0786 126.836 60.8287 109.603 61.8108 102.827C63.4905 91.2343 59.2831 72.3322 59.2831 72.3322L67.7058 73.0605Z" fill="#263238"/>
<path id="Vector_101" opacity="0.2" d="M63.2187 76.5363L60.7656 80.4051C61.3896 84.417 62.0107 89.4346 62.1691 94.2631C65.6191 88.0874 63.9858 79.8061 63.2187 76.5363Z" fill="black"/>
<path id="Vector_102" d="M61.3944 127.216L55.6162 127.061L55.9666 125.199L61.9391 125.234L61.3944 127.216Z" fill="#407BFF"/>
<path id="Vector_103" d="M65.1913 72.8771C65.1913 72.8771 63.2761 91.6749 58.8831 101.899C55.335 110.157 46.8745 123.362 46.8745 123.362L43.4946 121.385C43.4946 121.385 48.9465 106.7 51.6185 101.196C58.1702 87.7024 52.0758 76.88 56.2041 72.0653L65.1913 72.8771Z" fill="#263238"/>
<path id="Vector_104" d="M47.2416 123.65L42.9321 121.287L43.6317 119.444L48.2249 122.034L47.2416 123.65Z" fill="#407BFF"/>
<path id="Vector_105" d="M56.0903 71.3757L55.4826 72.3603C55.4356 72.4368 55.5229 72.5264 55.656 72.5379L67.7184 73.5811C67.8221 73.5901 67.9124 73.5469 67.9245 73.4822L68.1172 72.4618C68.1306 72.391 68.0458 72.3229 67.9325 72.313L56.2852 71.3056C56.1994 71.2982 56.1207 71.3264 56.0903 71.3757Z" fill="#407BFF"/>
<path id="Vector_106" d="M57.5416 72.8134L57.2296 72.7866C57.1675 72.7811 57.1231 72.745 57.1307 72.7062L57.3928 71.3811C57.4005 71.3424 57.4575 71.3149 57.5199 71.3203L57.8319 71.3472C57.8939 71.3526 57.9384 71.3888 57.9307 71.4275L57.6687 72.7526C57.661 72.7914 57.6037 72.8189 57.5416 72.8134Z" fill="#263238"/>
<path id="Vector_107" d="M66.8322 73.617L66.5202 73.5901C66.4581 73.5846 66.4136 73.5485 66.4213 73.5098L66.6834 72.1846C66.691 72.1459 66.748 72.1184 66.8101 72.1238L67.1221 72.1507C67.1842 72.1562 67.2286 72.1923 67.221 72.231L66.9589 73.5562C66.9512 73.5949 66.8942 73.6224 66.8322 73.617Z" fill="#263238"/>
<path id="Vector_108" d="M62.1871 73.215L61.8751 73.1882C61.8131 73.1827 61.7686 73.1466 61.7763 73.1078L62.0383 71.7827C62.046 71.744 62.103 71.7165 62.1651 71.7219L62.4771 71.7488C62.5391 71.7542 62.5836 71.7904 62.5759 71.8291L62.3139 73.1542C62.3065 73.1933 62.2492 73.2205 62.1871 73.215Z" fill="#263238"/>
<path id="Vector_109" d="M65.662 46.4678C65.6313 46.695 65.7269 46.8954 65.8757 46.9155C66.0242 46.9354 66.1695 46.7674 66.1999 46.5402C66.2303 46.313 66.1346 46.1126 65.9861 46.0925C65.8377 46.0726 65.6927 46.2406 65.662 46.4678Z" fill="#263238"/>
<path id="Vector_110" d="M68.2308 46.8131C68.2001 47.0403 68.2958 47.2406 68.4446 47.2608C68.5931 47.2806 68.7384 47.1126 68.7688 46.8854C68.7995 46.6582 68.7035 46.4579 68.555 46.4378C68.4065 46.4179 68.2616 46.5859 68.2308 46.8131Z" fill="#263238"/>
<path id="Vector_111" d="M68.4878 46.4416L69.0548 46.3578C69.0548 46.3578 68.7176 46.7463 68.4878 46.4416Z" fill="#263238"/>
<path id="Vector_112" d="M67.2227 47.0627C67.2227 47.0627 67.4768 48.0928 67.8377 48.6218C67.5001 48.8614 67.0073 48.665 67.0073 48.665L67.2227 47.0627Z" fill="#ED893E"/>
<path id="Vector_113" d="M65.6772 49.3456C64.923 49.0893 64.6343 48.5002 64.6206 48.4714C64.6075 48.4435 64.6193 48.4103 64.6471 48.3968C64.6747 48.3834 64.7083 48.3952 64.7217 48.4231C64.7255 48.4307 65.1038 49.1965 66.1035 49.3306C66.1355 49.3344 66.1556 49.3629 66.1515 49.3933C66.1473 49.424 66.1191 49.4455 66.0887 49.4413C65.9387 49.4208 65.8014 49.3879 65.6772 49.3456Z" fill="#263238"/>
<path id="Vector_114" d="M64.4967 45.1504C64.4781 45.144 64.4608 45.1328 64.4471 45.1165C64.4074 45.0691 64.4135 44.9987 64.4608 44.9587C65.0215 44.487 65.6071 44.657 65.6317 44.6643C65.6928 44.6877 65.7239 44.7443 65.7063 44.8032C65.6887 44.8624 65.6266 44.896 65.5674 44.8787C65.5472 44.8726 65.0701 44.7389 64.6048 45.1299C64.5738 45.1562 64.5328 45.1626 64.4967 45.1504Z" fill="#263238"/>
<path id="Vector_115" d="M69.3093 45.8346C69.2921 45.8288 69.2757 45.8182 69.2626 45.8035C68.8521 45.3482 68.3493 45.4214 68.3442 45.4224C68.2828 45.432 68.2258 45.3901 68.2162 45.3293C68.2066 45.2682 68.2482 45.2109 68.3093 45.2013C68.3349 45.1971 68.9385 45.1091 69.4287 45.6534C69.47 45.6995 69.4665 45.7702 69.4207 45.8115C69.3893 45.8397 69.3465 45.847 69.3093 45.8346Z" fill="#263238"/>
<g id="Group_23">
<g id="Group_24">
<g id="Group_25">
<g id="Group_26">
<g id="Group_27">
<path id="Vector_116" d="M71.8409 69.9763C72.7123 67.2621 75.6192 65.7683 78.3334 66.64C81.0476 67.5114 82.5414 70.4182 81.6697 73.1325L79.6755 79.343L69.8467 76.1872L71.8409 69.9763Z" fill="#407BFF"/>
<path id="Vector_117" opacity="0.3" d="M71.8409 69.9763C72.7123 67.2621 75.6192 65.7683 78.3334 66.64C81.0476 67.5114 82.5414 70.4182 81.6697 73.1325L79.6755 79.343L69.8467 76.1872L71.8409 69.9763Z" fill="black"/>
<g id="Group_28">
<path id="Vector_118" d="M62.1403 66.8608L60.3425 72.4598C60.2337 72.7984 60.4203 73.1606 60.7585 73.2694L69.8472 76.1879L71.8417 69.976C72.2069 68.8384 72.9281 67.9168 73.8453 67.2928C75.1144 66.4253 76.7566 66.1338 78.3333 66.64L68.6321 63.5248C67.0555 63.0186 65.4133 63.3101 64.1441 64.1776C63.2264 64.8016 62.5054 65.7232 62.1403 66.8608Z" fill="#407BFF"/>
</g>
</g>
</g>
</g>
<path id="Vector_119" d="M67.0177 71.1066L69.5217 63.3078C69.5597 63.1894 69.4823 63.065 69.3594 63.0467L66.793 62.6669L66.4682 63.6781L68.3309 64.2762L66.2202 70.8499L67.0177 71.1066Z" fill="#263238"/>
<path id="Vector_120" d="M65.6879 70.6797C65.5256 71.1846 65.8037 71.7254 66.3087 71.8877C66.8136 72.0499 67.3548 71.7718 67.5167 71.2669C67.6789 70.7619 67.4008 70.2211 66.8959 70.0589C66.3909 69.8966 65.8498 70.1747 65.6879 70.6797Z" fill="#263238"/>
<g id="Group_29">
<path id="Vector_121" d="M70.3207 77.111L82.9281 81.159C83.121 81.2211 83.3278 81.1149 83.3898 80.9216C83.4519 80.7286 83.3457 80.5219 83.1527 80.4598L69.8465 76.1872C69.7223 76.5735 69.9348 76.9872 70.3207 77.111Z" fill="#407BFF"/>
<path id="Vector_122" opacity="0.2" d="M70.3209 77.111L75.4729 78.7651C75.6658 78.8272 75.8726 78.721 75.9346 78.5277C75.9967 78.3347 75.8905 78.128 75.6972 78.0659L69.8463 76.1872C69.7225 76.5735 69.935 76.9872 70.3209 77.111Z" fill="black"/>
</g>
</g>
</g>
<path id="Vector_123" d="M57.006 59.2327L56.8278 59.4263L56.6291 59.6547C56.4947 59.8083 56.3619 59.9677 56.2323 60.1303C55.9718 60.4547 55.7231 60.793 55.4867 61.1392C55.0035 61.825 54.566 62.5453 54.192 63.2938C53.8179 64.0419 53.4851 64.8093 53.23 65.6013C53.102 65.9965 52.9814 66.3952 52.8892 66.7997C52.8585 66.9181 52.8527 66.9655 52.8393 67.0224C52.8332 67.0743 52.8265 67.1229 52.8259 67.1613C52.8243 67.2397 52.8316 67.2784 52.8393 67.3117C52.8435 67.3683 52.9465 67.5053 53.2092 67.6371C53.4649 67.7674 53.8211 67.8666 54.199 67.9389C54.9644 68.0848 55.8255 68.1072 56.6895 68.1021C57.5574 68.0912 58.4403 68.0256 59.3235 67.9319C60.2063 67.8519 61.1036 67.7245 61.9715 67.5946L62.3203 68.9779C60.5286 69.5543 58.7299 69.969 56.8313 70.1981C55.8812 70.3114 54.912 70.3613 53.872 70.2611C53.3504 70.2048 52.8092 70.1056 52.2287 69.8733C51.9395 69.7539 51.638 69.5962 51.3446 69.3658C51.0531 69.1376 50.7695 68.8253 50.5756 68.4493C50.1708 67.6986 50.2192 66.8135 50.3299 66.2935C50.4076 65.8039 50.5174 65.321 50.6383 64.8413C50.8982 63.8874 51.2268 62.9527 51.647 62.0634C52.062 61.1715 52.5481 60.3175 53.0905 59.4999C53.3676 59.0947 53.6595 58.7002 53.9692 58.3152C54.1238 58.1226 54.2825 57.9325 54.4486 57.744L54.7062 57.4647C54.7999 57.3667 54.8748 57.2883 55.0006 57.1661L57.006 59.2327Z" fill="#FFB573"/>
<path id="Vector_124" d="M61.2716 67.8819L63.5148 66.6935L63.6153 69.1021C63.6153 69.1021 62.031 69.7626 61.1011 69.0333L61.2716 67.8819Z" fill="#FFB573"/>
<path id="Vector_125" d="M65.3596 66.5107L65.023 68.729L63.6153 69.1021L63.5151 66.6935L65.3596 66.5107Z" fill="#FFB573"/>
<g id="Group_30">
<path id="Vector_126" d="M55.6506 54.7142C54.2406 54.9635 52.2646 59.008 52.2646 59.008L55.8192 62.2227C55.8192 62.2227 58.6464 59.1392 58.4954 57.3018C58.3674 55.7421 57.4464 54.3968 55.6506 54.7142Z" fill="#407BFF"/>
<path id="Vector_127" opacity="0.7" d="M55.6506 54.7142C54.2406 54.9635 52.2646 59.008 52.2646 59.008L55.8192 62.2227C55.8192 62.2227 58.6464 59.1392 58.4954 57.3018C58.3674 55.7421 57.4464 54.3968 55.6506 54.7142Z" fill="white"/>
</g>
<path id="Vector_128" d="M46.1278 126.74C46.0926 126.749 46.0554 126.753 46.017 126.751C45.6615 126.732 45.2814 126.19 45.0862 125.868C45.0746 125.849 45.0756 125.825 45.0884 125.807C45.1015 125.788 45.1239 125.78 45.1457 125.784C45.259 125.809 46.2561 126.031 46.3796 126.366C46.3985 126.418 46.4068 126.497 46.3402 126.584C46.2785 126.666 46.2071 126.718 46.1278 126.74ZM45.2538 125.925C45.5383 126.364 45.8212 126.629 46.0231 126.64C46.1105 126.644 46.1847 126.604 46.2516 126.516C46.2903 126.466 46.2833 126.429 46.2746 126.405C46.1991 126.2 45.5988 126.011 45.2538 125.925Z" fill="#407BFF"/>
<path id="Vector_129" d="M46.0267 125.856C45.7185 125.942 45.3134 125.949 45.1188 125.893C45.0996 125.888 45.0849 125.873 45.0798 125.853C45.075 125.834 45.0807 125.814 45.0948 125.8C45.1195 125.775 45.7019 125.206 46.1083 125.235C46.2142 125.243 46.3006 125.288 46.3643 125.371C46.4635 125.5 46.4225 125.602 46.3889 125.651C46.3265 125.743 46.1902 125.811 46.0267 125.856ZM45.2529 125.806C45.5819 125.85 46.1735 125.769 46.2967 125.588C46.3172 125.558 46.3332 125.513 46.276 125.439C46.2321 125.382 46.1748 125.352 46.1012 125.347C45.8238 125.327 45.4215 125.656 45.2529 125.806Z" fill="#407BFF"/>
<path id="Vector_130" d="M60.5768 130.684C60.2529 130.684 59.9006 130.622 59.6561 130.568C59.6328 130.563 59.6152 130.543 59.6126 130.519C59.6101 130.495 59.6229 130.472 59.6446 130.462C59.7832 130.397 61.0065 129.832 61.3147 130.04C61.3541 130.067 61.3998 130.118 61.3944 130.213C61.3867 130.345 61.3307 130.451 61.2277 130.529C61.075 130.645 60.835 130.684 60.5768 130.684ZM59.8485 130.493C60.2117 130.561 60.8837 130.649 61.1602 130.44C61.237 130.382 61.2766 130.306 61.2824 130.207C61.2849 130.162 61.2674 130.144 61.2517 130.133C61.0798 130.016 60.3563 130.269 59.8485 130.493Z" fill="#407BFF"/>
<path id="Vector_131" d="M59.6684 130.569C59.6552 130.569 59.6424 130.565 59.6322 130.556C59.6162 130.542 59.6092 130.521 59.6136 130.501C59.6252 130.449 59.9029 129.243 60.5669 129.32C60.7333 129.34 60.7788 129.422 60.7874 129.488C60.829 129.795 60.0575 130.414 59.6892 130.565C59.6824 130.568 59.6754 130.569 59.6684 130.569ZM60.5071 129.428C60.0831 129.428 59.8357 130.13 59.7538 130.411C60.1522 130.203 60.7036 129.699 60.677 129.503C60.6751 129.488 60.669 129.445 60.5538 129.431C60.5378 129.429 60.5221 129.428 60.5071 129.428Z" fill="#407BFF"/>
<path id="Vector_132" d="M65.9189 46.0963L66.486 46.0125C66.486 46.0125 66.1487 46.401 65.9189 46.0963Z" fill="#263238"/>
</g>
</g>
<g id="E-mails">
<g id="Group_31">
<g id="Group_32">
<path id="Vector_133" d="M85.6092 72.8672L73.2188 75.44C72.774 75.5296 72.3388 75.2448 72.246 74.8L71.686 72.0992L71.478 71.1072L71.8428 69.9744C71.894 69.8112 71.9548 69.6512 72.0252 69.4976C72.0316 69.4752 72.0444 69.4496 72.0572 69.4272C72.2652 68.9536 72.5436 68.5248 72.8732 68.1504L73.5196 68.016L84.1436 65.8112C84.4796 65.7408 84.8124 65.8912 84.9948 66.16C85.0524 66.2464 85.094 66.3424 85.1164 66.448L86.246 71.8944C86.3388 72.336 86.0508 72.7744 85.6092 72.8672Z" fill="#407BFF"/>
<path id="Vector_134" opacity="0.3" d="M84.9947 66.16L79.0171 72.2496L77.7371 71.7312L72.7579 69.712L72.0571 69.4272C72.2651 68.9536 72.5435 68.5248 72.8731 68.1504L73.5195 68.016L84.1435 65.8112C84.4795 65.7408 84.8123 65.8912 84.9947 66.16Z" fill="black"/>
<g id="Group_33">
<path id="Vector_135" d="M84.995 66.16L77.7374 71.7312L77.2638 72.096L72.7038 69.8336L72.0254 69.4976C72.0318 69.4752 72.0446 69.4496 72.0574 69.4272C72.2654 68.9536 72.5438 68.5248 72.8734 68.1504L73.5198 68.016L84.1438 65.8112C84.4798 65.7408 84.8126 65.8912 84.995 66.16Z" fill="#407BFF"/>
<path id="Vector_136" opacity="0.2" d="M84.995 66.16L77.7374 71.7312L77.2638 72.096L72.7038 69.8336L72.0254 69.4976C72.0318 69.4752 72.0446 69.4496 72.0574 69.4272C72.2654 68.9536 72.5438 68.5248 72.8734 68.1504L73.5198 68.016L84.1438 65.8112C84.4798 65.7408 84.8126 65.8912 84.995 66.16Z" fill="white"/>
</g>
</g>
<g id="Group_34">
<path id="Vector_137" d="M100.737 84.0906L96.9473 88.1597C96.6388 88.4909 96.1156 88.5094 95.7847 88.201L86.5242 79.577C86.193 79.2685 86.1745 78.7453 86.4829 78.4144L90.2724 74.3453C90.3463 74.2659 90.4327 74.2042 90.5258 74.1616C90.8209 74.024 91.1831 74.0694 91.4349 74.304L100.695 82.928C100.947 83.1622 101.018 83.521 100.902 83.8243C100.866 83.9206 100.811 84.0109 100.737 84.0906Z" fill="#407BFF"/>
<path id="Vector_138" opacity="0.3" d="M100.903 83.8243L92.4788 82.4666L90.5259 74.1616C90.8209 74.024 91.1832 74.0694 91.435 74.304L100.695 82.928C100.947 83.1619 101.018 83.5206 100.903 83.8243Z" fill="black"/>
<g id="Group_35">
<path id="Vector_139" d="M100.903 83.8243L92.7019 81.3782L90.5259 74.1619C90.8209 74.0243 91.1832 74.0698 91.435 74.3043L100.695 82.9283C100.947 83.1619 101.018 83.5206 100.903 83.8243Z" fill="#407BFF"/>
<path id="Vector_140" opacity="0.2" d="M100.903 83.8243L92.7019 81.3782L90.5259 74.1619C90.8209 74.0243 91.1832 74.0698 91.435 74.3043L100.695 82.9283C100.947 83.1619 101.018 83.5206 100.903 83.8243Z" fill="white"/>
</g>
</g>
<g id="Group_36">
<path id="Vector_141" d="M104.028 90.7952L108.195 95.6522C108.532 96.0451 108.466 96.6323 108.057 96.952L99.0211 104.002C98.7658 104.201 98.3443 104.116 98.0806 103.815L94.8269 100.102C94.7632 100.029 94.7126 99.9488 94.6762 99.8656C94.5587 99.6006 94.5789 99.3037 94.7507 99.1242L102.744 90.7674C103.019 90.48 103.42 90.4154 103.747 90.5757C103.851 90.6266 103.947 90.6995 104.028 90.7952Z" fill="#407BFF"/>
<path id="Vector_142" opacity="0.3" d="M103.746 90.5761L101.753 99.4129L94.6757 99.8657C94.5582 99.6007 94.5784 99.3037 94.7502 99.1242L102.743 90.7674C103.018 90.4801 103.42 90.4157 103.746 90.5761Z" fill="black"/>
<g id="Group_37">
<path id="Vector_143" d="M103.747 90.576L100.417 99.9562L94.6762 99.866C94.5587 99.601 94.5789 99.304 94.7507 99.1245L102.744 90.7677C103.019 90.48 103.42 90.4157 103.747 90.576Z" fill="#407BFF"/>
<path id="Vector_144" opacity="0.2" d="M103.747 90.576L100.417 99.9562L94.6762 99.866C94.5587 99.601 94.5789 99.304 94.7507 99.1245L102.744 90.7677C103.019 90.48 103.42 90.4157 103.747 90.576Z" fill="white"/>
</g>
</g>
</g>
</g>
</g>
</svg>
