<svg width="139" height="30" viewBox="0 0 139 30" fill="none" xmlns="http://www.w3.org/2000/svg">
<path d="M13.584 7.436C13.584 6.43333 13.2533 5.65467 12.592 5.1C11.952 4.54533 11.0453 4.268 9.872 4.268H4.144V10.572H9.872C11.0453 10.572 11.952 10.3053 12.592 9.772C13.2533 9.21733 13.584 8.43867 13.584 7.436ZM0.336 23.5V1.1H10.256C11.8347 1.1 13.1467 1.36667 14.192 1.9C15.2587 2.43333 16.0587 3.148 16.592 4.044C17.1467 4.91867 17.424 5.88933 17.424 6.956C17.424 7.93733 17.2427 8.76933 16.88 9.452C16.5173 10.1347 16.0267 10.6787 15.408 11.084C14.7893 11.4893 14.096 11.7773 13.328 11.948V12.204C14.2453 12.332 15.056 12.5987 15.76 13.004C16.464 13.4093 17.008 13.9853 17.392 14.732C17.776 15.4787 17.968 16.4067 17.968 17.516C17.968 18.6467 17.6693 19.6707 17.072 20.588C16.496 21.484 15.664 22.1987 14.576 22.732C13.488 23.244 12.1867 23.5 10.672 23.5H0.336ZM4.144 20.332H10.288C11.504 20.332 12.4533 20.0547 13.136 19.5C13.8187 18.9453 14.16 18.1453 14.16 17.1C14.16 15.9907 13.7867 15.148 13.04 14.572C12.3147 13.996 11.3547 13.708 10.16 13.708H4.144V20.332ZM35.3713 23.5H32.0433L31.8193 21.9C31.2859 22.476 30.6459 22.924 29.8993 23.244C29.1526 23.564 28.3633 23.724 27.5312 23.724C26.2726 23.724 25.1846 23.468 24.2673 22.956C23.3713 22.4227 22.6779 21.6547 22.1873 20.652C21.6966 19.628 21.4513 18.3693 21.4513 16.876V7.5H25.0673V16.396C25.0673 17.7187 25.3339 18.732 25.8673 19.436C26.4006 20.1187 27.2219 20.46 28.3313 20.46C29.3979 20.46 30.2299 20.1187 30.8273 19.436C31.4459 18.732 31.7553 17.6973 31.7553 16.332V7.5H35.3713V23.5ZM51.3575 9.868L50.9415 9.964V0.459999H54.5575V23.5H51.2935L51.0375 21.516C50.4828 22.1347 49.7788 22.6573 48.9255 23.084C48.0722 23.5107 47.0588 23.724 45.8855 23.724C44.4562 23.724 43.1975 23.3827 42.1095 22.7C41.0428 22.0173 40.2108 21.0573 39.6135 19.82C39.0162 18.5827 38.7175 17.1427 38.7175 15.5C38.7175 13.8573 39.0162 12.4173 39.6135 11.18C40.2108 9.94267 41.0428 8.98267 42.1095 8.3C43.1975 7.61733 44.4562 7.276 45.8855 7.276C47.1442 7.276 48.2428 7.532 49.1815 8.044C50.1202 8.53467 50.8455 9.14267 51.3575 9.868ZM42.5895 15.5C42.5895 16.972 42.9735 18.1667 43.7415 19.084C44.5095 20.0013 45.5122 20.46 46.7495 20.46C47.4962 20.46 48.1788 20.268 48.7975 19.884C49.4375 19.5 49.9495 18.9453 50.3335 18.22C50.7388 17.4733 50.9415 16.5667 50.9415 15.5C50.9415 14.4333 50.7388 13.5373 50.3335 12.812C49.9495 12.0653 49.4375 11.5 48.7975 11.116C48.1788 10.732 47.4962 10.54 46.7495 10.54C45.5122 10.54 44.5095 10.9987 43.7415 11.916C42.9735 12.8333 42.5895 14.028 42.5895 15.5ZM70.5123 7.5H73.7763V21.1C73.7763 22.9133 73.3283 24.4707 72.4323 25.772C71.5363 27.0947 70.2456 28.108 68.5603 28.812C66.8749 29.5373 64.8483 29.9 62.4803 29.9L61.9363 26.796C64.6243 26.732 66.6616 26.22 68.0483 25.26C69.4563 24.3 70.1603 22.924 70.1603 21.132V21.1H70.5763C70.0856 21.8253 69.3709 22.444 68.4323 22.956C67.5149 23.468 66.4163 23.724 65.1363 23.724C63.7283 23.724 62.4803 23.3827 61.3923 22.7C60.3043 22.0173 59.4509 21.0573 58.8323 19.82C58.2349 18.5827 57.9363 17.1427 57.9363 15.5C57.9363 13.8573 58.2349 12.4173 58.8323 11.18C59.4509 9.94267 60.3043 8.98267 61.3923 8.3C62.4803 7.61733 63.7283 7.276 65.1363 7.276C65.9256 7.276 66.6403 7.38267 67.2803 7.596C67.9416 7.788 68.5176 8.05467 69.0083 8.396C69.5203 8.716 69.9363 9.07867 70.2563 9.484L70.5123 7.5ZM61.8083 15.5C61.8083 16.972 62.1923 18.1667 62.9603 19.084C63.7283 20.0013 64.7523 20.46 66.0323 20.46C66.7789 20.46 67.4616 20.268 68.0803 19.884C68.6989 19.4787 69.2003 18.9027 69.5843 18.156C69.9683 17.4093 70.1603 16.524 70.1603 15.5C70.1603 14.4333 69.9683 13.5373 69.5843 12.812C69.2003 12.0653 68.6883 11.5 68.0483 11.116C67.4296 10.732 66.7576 10.54 66.0323 10.54C64.7523 10.54 63.7283 10.9987 62.9603 11.916C62.1923 12.812 61.8083 14.0067 61.8083 15.5ZM85.187 23.724C83.587 23.724 82.179 23.372 80.963 22.668C79.7683 21.964 78.8297 20.9827 78.147 19.724C77.4857 18.4653 77.155 17.0147 77.155 15.372C77.155 13.8147 77.4857 12.428 78.147 11.212C78.8083 9.996 79.7257 9.036 80.899 8.332C82.0723 7.628 83.4057 7.276 84.899 7.276C86.4137 7.276 87.747 7.60667 88.899 8.268C90.051 8.92933 90.947 9.85733 91.587 11.052C92.2483 12.2253 92.579 13.5907 92.579 15.148C92.579 15.404 92.5683 15.6813 92.547 15.98C92.5257 16.2573 92.4937 16.556 92.451 16.876H81.059C81.1657 17.6227 81.4003 18.2733 81.763 18.828C82.147 19.3613 82.627 19.7773 83.203 20.076C83.779 20.3747 84.4403 20.524 85.187 20.524C86.083 20.524 86.883 20.3427 87.587 19.98C88.3123 19.6173 88.8137 19.1373 89.091 18.54L92.259 19.596C91.619 20.876 90.6697 21.8893 89.411 22.636C88.1523 23.3613 86.7443 23.724 85.187 23.724ZM88.643 13.932C88.6217 13.2707 88.4403 12.6733 88.099 12.14C87.7577 11.6067 87.3097 11.1907 86.755 10.892C86.2003 10.572 85.5817 10.412 84.899 10.412C84.3017 10.412 83.7363 10.5613 83.203 10.86C82.6697 11.1587 82.211 11.5747 81.827 12.108C81.4643 12.62 81.2297 13.228 81.123 13.932H88.643ZM97.0118 7.5V3.02H100.692V7.5H104.436V10.668H100.692V17.772C100.692 18.732 100.873 19.404 101.236 19.788C101.598 20.1507 102.068 20.3533 102.644 20.396C103.241 20.4173 103.838 20.3853 104.436 20.3V23.372C103.518 23.564 102.612 23.6173 101.716 23.532C100.841 23.468 100.052 23.2333 99.3478 22.828C98.6438 22.4013 98.0784 21.7827 97.6518 20.972C97.2251 20.1613 97.0118 19.0947 97.0118 17.772V10.668H94.7718V7.5H97.0118ZM109.566 23.724C108.884 23.724 108.308 23.5 107.838 23.052C107.39 22.5827 107.166 22.0067 107.166 21.324C107.166 20.6627 107.39 20.108 107.838 19.66C108.308 19.1907 108.884 18.956 109.566 18.956C110.228 18.956 110.793 19.1907 111.262 19.66C111.732 20.108 111.966 20.6627 111.966 21.324C111.966 22.0067 111.732 22.5827 111.262 23.052C110.793 23.5 110.228 23.724 109.566 23.724ZM115.863 0.459999H119.479V23.5H115.863V0.459999ZM134.651 7.5H138.458L129.051 29.9H125.467L128.347 23.052L122.107 7.5H126.107L130.331 18.828L134.651 7.5Z" fill="white"/>
</svg>
