<svg width="1105" height="429" viewBox="0 0 1105 429" fill="none" xmlns="http://www.w3.org/2000/svg">
<path d="M224.4 324.6H0V288.6L214.8 4.19998H272.4V282.6H333.6V324.6H272.4V424.2H224.4V324.6ZM225.6 282.6V55.2L55.2 282.6H225.6Z" fill="#2F2F2F"/>
<path d="M408.164 214.2C408.164 183.4 410.364 155 414.764 129C419.164 102.6 426.764 79.8 437.564 60.6C448.364 41.4 463.364 26.6 482.564 16.2C502.164 5.4 526.764 0 556.364 0C585.964 0 610.364 5.4 629.564 16.2C648.764 26.6 663.764 41.4 674.564 60.6C685.364 79.8 692.964 102.6 697.364 129C701.764 155 703.964 183.4 703.964 214.2C703.964 245.4 701.764 274.2 697.364 300.6C692.964 326.6 685.364 349.2 674.564 368.4C663.764 387.6 648.764 402.4 629.564 412.8C610.364 423.2 585.964 428.4 556.364 428.4C526.764 428.4 502.164 423.2 482.564 412.8C463.364 402.4 448.364 387.6 437.564 368.4C426.764 349.2 419.164 326.6 414.764 300.6C410.364 274.2 408.164 245.4 408.164 214.2ZM655.364 214.2C655.364 190.6 654.164 168.6 651.764 148.2C649.764 127.4 645.564 109.2 639.164 93.6C632.764 77.6 622.964 65.2 609.764 56.4C596.564 47.2 578.764 42.6 556.364 42.6C534.364 42.6 516.564 47.2 502.964 56.4C489.764 65.2 479.764 77.6 472.964 93.6C466.564 109.2 462.164 127.4 459.764 148.2C457.764 168.6 456.764 190.6 456.764 214.2C456.764 238.6 457.764 261.2 459.764 282C462.164 302.8 466.564 321 472.964 336.6C479.764 352.2 489.764 364.4 502.964 373.2C516.564 381.6 534.364 385.8 556.364 385.8C578.764 385.8 596.564 381.6 609.764 373.2C622.964 364.4 632.764 352.2 639.164 336.6C645.564 321 649.764 302.8 651.764 282C654.164 261.2 655.364 238.6 655.364 214.2Z" fill="#2F2F2F"/>
<path d="M994.908 324.6H770.508V288.6L985.308 4.19998H1042.91V282.6H1104.11V324.6H1042.91V424.2H994.908V324.6ZM996.108 282.6V55.2L825.708 282.6H996.108Z" fill="#2F2F2F"/>
</svg>
